<?xml version="1.0" encoding="utf-8"?>
<!-- Generator: Adobe Illustrator 26.3.1, SVG Export Plug-In . SVG Version: 6.00 Build 0)  -->
<svg version="1.1" id="Calque_1" xmlns="http://www.w3.org/2000/svg" xmlns:xlink="http://www.w3.org/1999/xlink" x="0px" y="0px"
	 viewBox="0 0 50 50" style="enable-background:new 0 0 50 50;" xml:space="preserve">
<style type="text/css">
	.st0{fill:#FFD7D7;}
	.st1{fill:#4E5166;}
</style>
<g>
	
		<g id="_x39_269873b-566f-aa23-fe77-697bbc54db67" transform="matrix(0.17276311525438642,0,0,0.17276311525438642,35.75002377601375,124.08554457454373)">
		<g>
			<path class="st0" d="M40.1-676c-27.3-27.3-63.6-42.2-102.3-42.2c-38.7,0-75,14.9-102.3,42.2c-27.3,27.4-42.2,63.7-42.2,102.5
				s14.9,75.1,42.2,102.5c1.5,1.5,3,2.9,4.5,4.3c26.7,24.6,61.2,37.9,97.8,37.9c35.9,0,69.8-12.8,96.2-36.5c2.1-1.8,4.1-3.8,6.1-5.7
				c27.3-27.4,42.2-63.7,42.2-102.5S67.4-648.7,40.1-676z M43.2-631.3H1c-4.5-19-11-37-20-54.4C7.3-675.6,29.4-655.9,43.2-631.3z
				 M-108.2-571.8c0-6.6,0.4-13.2,1.1-19.7c9-1.7,16.3-7.6,20.7-15.2H-19c1.3,10.4,2.1,21.2,2.1,31.9c0,5.9-0.4,11.8-0.7,17.6
				c-9.7,2.1-17.6,8.3-21.4,17h-66.7C-107.2-550.7-108.2-561.5-108.2-571.8z M-71.2-693.3c3.1-0.4,6.2-0.4,9-0.4
				c3.4,0,6.9,0,10.4,0.4c12.4,19.4,21.8,40.2,27.3,62h-60.1c-2.1-5.9-5.9-11.1-10.7-14.9C-89.2-662.8-81.2-678.4-71.2-693.3z
				 M-104-686.4c-5.9,11.1-11,22.9-15.2,34.6c-10.7,2.1-19.4,10-22.8,20.1h-25.2C-153.8-656.3-131.3-676-104-686.4z M-182.2-573.5
				c0-11.4,1.7-22.9,4.8-33.2h37.7c2.1,3.8,5.2,7.3,8.6,10c-0.7,8.3-1.4,16.6-1.4,24.9c0,10.7,0.7,21.1,2.1,31.5h-47
				C-180.8-551-182.2-562.1-182.2-573.5z M-147.3-488.8c-8-8-14.9-17.2-20.4-27.2h41.5c0.4,1.7,0.8,3.4,1.3,5.2
				c4.4,16.9,10.6,33.5,18.8,49.2C-121.7-467.9-135.7-477.2-147.3-488.8z M-53.9-453.4c-2.8,0.4-5.5,0.4-8.3,0.4
				c-3.8,0-7.6-0.4-11.4-0.7c-12.4-19.4-21.8-40.2-27.3-62h61.2c2.1,5.2,5.9,10,10.4,13.2C-35.2-485.3-43.6-469-53.9-453.4z
				 M21.7-487.5C9.6-475.8-5-466.4-21.1-460.3c6.6-12.1,11.7-24.2,15.9-37c4.8-1,9.1-3.1,12.7-6c4-3.2,7.1-7.4,9.1-12.3h26.6
				C37.6-505.3,30.2-495.8,21.7-487.5z M15.9-540.3c-2.1-4.5-5.5-8.7-9.7-11.8c0.7-7.6,1-15.2,1-22.9c0-10.7-0.7-21.5-2.1-31.9h47.7
				c3.5,10.4,4.9,21.8,4.9,33.2c0,11.4-1.7,22.5-4.5,33.2H15.9z"/>
		</g>
	</g>
	<circle class="st1" cx="24.9" cy="22.9" r="9.3"/>
	<path class="st1" d="M41.6,43.7C37.1,47.8,31.2,50,25,50c-6.3,0-12.3-2.3-16.9-6.5c0.6-1.4,1.3-2.6,2.2-3.8
		c1.1-1.5,2.4-2.7,3.9-3.8c1.8-1.3,3.7-2.2,5.9-2.8c1.4,0.8,3,1.3,4.7,1.3c1.7,0,3.3-0.5,4.7-1.3c2.9,0.8,5.4,2.2,7.6,4.1
		c0.9,0.8,1.7,1.7,2.4,2.7C40.4,41,41.1,42.3,41.6,43.7z"/>
</g>
</svg>
