<?xml version="1.0" encoding="utf-8"?>
<!-- Generator: Adobe Illustrator 26.3.1, SVG Export Plug-In . SVG Version: 6.00 Build 0)  -->
<svg version="1.1" id="Calque_1" xmlns="http://www.w3.org/2000/svg" xmlns:xlink="http://www.w3.org/1999/xlink" x="0px" y="0px"
	 viewBox="0 0 300 300" style="enable-background:new 0 0 300 300;" xml:space="preserve">
<style type="text/css">
	.st0{fill:#FD2D01;}
</style>
<g id="b5a93e15-ef7c-9d7a-680b-cdb17474f15f" transform="matrix(2.2,0,0,2.2,90.86749374866484,130.23299922943116)">
	<path class="st0" d="M-10.2,12.7L-10.2,12.7c-1.5,0-2.7-0.5-3.7-1.5l0,0l0,0c-1-1-1.5-2.2-1.5-3.7l0,0l0,0c0-1.4,0.5-2.7,1.5-3.6
		l0,0l0,0c1-1,2.2-1.5,3.7-1.5l0,0l0,0c1.5,0,2.7,0.5,3.8,1.4l0,0l-1.4,1.5l0,0c-0.7-0.6-1.5-0.8-2.4-0.8l0,0l0,0
		c-0.9,0-1.7,0.3-2.2,0.9l0,0l0,0C-13,6-13.2,6.7-13.2,7.6l0,0l0,0c0,1,0.3,1.7,0.9,2.3l0,0l0,0c0.6,0.6,1.3,0.8,2.2,0.8l0,0l0,0
		c0.7,0,1.3-0.1,1.7-0.4l0,0V8.4h-1.4V6.5h3.4v4.8l0,0C-7.5,12.2-8.8,12.7-10.2,12.7L-10.2,12.7z M-2.8,5.8v0.8l0,0
		C-2.3,6.1-1.7,5.8-1,5.8l0,0l0,0c0.2,0,0.4,0,0.6,0l0,0l-0.3,1.9l0,0c-0.2-0.2-0.5-0.3-0.9-0.3l0,0l0,0c-0.5,0-0.9,0.4-1.2,1l0,0
		v4.2h-1.9V6L-2.8,5.8z M4,12.7L4,12.7c-1,0-1.8-0.3-2.5-1l0,0l0,0c-0.7-0.7-1-1.5-1-2.5l0,0l0,0c0-1,0.3-1.8,1-2.5l0,0l0,0
		C2.2,6,3,5.7,4,5.7l0,0l0,0c1,0,1.8,0.3,2.5,1l0,0l0,0c0.7,0.7,1,1.5,1,2.5l0,0l0,0c0,1-0.3,1.8-1,2.5l0,0l0,0
		C5.8,12.4,5,12.7,4,12.7L4,12.7z M4,11.1L4,11.1L4,11.1c0.5,0,0.9-0.2,1.3-0.5l0,0l0,0c0.3-0.3,0.5-0.8,0.5-1.3l0,0l0,0
		c0-0.5-0.2-1-0.5-1.3l0,0l0,0C5,7.6,4.5,7.5,4,7.5l0,0l0,0C3.5,7.5,3.1,7.7,2.7,8l0,0l0,0C2.4,8.3,2.2,8.8,2.2,9.3l0,0l0,0
		c0,0.5,0.2,1,0.5,1.3l0,0l0,0C3,10.9,3.4,11.1,4,11.1z M12.9,10.3L12.9,10.3V5.8h1.9v6.8h-1.9V12l0,0c-0.5,0.4-1,0.6-1.6,0.6l0,0
		l0,0c-0.9,0-1.5-0.3-2-0.8l0,0l0,0c-0.5-0.5-0.7-1.1-0.7-1.8l0,0V5.8h1.9v3.8l0,0c0,0.5,0.1,0.8,0.3,1.1l0,0l0,0
		c0.2,0.3,0.6,0.4,1,0.4l0,0l0,0C12.2,11,12.6,10.8,12.9,10.3z M18.3,15.6h-1.9V6l1.9-0.2v0.6l0,0c0.5-0.4,1-0.6,1.5-0.6l0,0l0,0
		c1,0,1.9,0.3,2.5,1l0,0l0,0c0.6,0.7,0.9,1.5,0.9,2.4l0,0l0,0c0,0.9-0.3,1.7-0.9,2.4l0,0l0,0c-0.6,0.7-1.4,1-2.5,1l0,0l0,0
		c-0.7,0-1.2-0.2-1.5-0.6l0,0C18.3,12,18.3,15.6,18.3,15.6z M18.3,8.6L18.3,8.6v1.1l0,0c0.1,0.8,0.6,1.2,1.4,1.4l0,0l0,0
		c1.1-0.1,1.7-0.7,1.9-1.7l0,0l0,0c0-1.3-0.7-1.9-1.9-2l0,0l0,0C18.9,7.5,18.4,8,18.3,8.6z M27.7,12.7L27.7,12.7c-1,0-1.8-0.3-2.5-1
		l0,0l0,0c-0.7-0.7-1-1.5-1-2.5l0,0l0,0c0-1,0.3-1.8,1-2.5l0,0l0,0c0.7-0.7,1.5-1,2.5-1l0,0l0,0c1,0,1.8,0.3,2.5,1l0,0l0,0
		c0.7,0.7,1,1.5,1,2.5l0,0l0,0c0,1-0.3,1.8-1,2.5l0,0l0,0C29.5,12.4,28.7,12.7,27.7,12.7L27.7,12.7z M27.7,11.1L27.7,11.1L27.7,11.1
		c0.5,0,0.9-0.2,1.3-0.5l0,0l0,0c0.3-0.3,0.5-0.8,0.5-1.3l0,0l0,0c0-0.5-0.2-1-0.5-1.3l0,0l0,0c-0.3-0.4-0.7-0.5-1.3-0.5l0,0l0,0
		c-0.5,0-0.9,0.2-1.3,0.5l0,0l0,0c-0.3,0.3-0.5,0.8-0.5,1.3l0,0l0,0c0,0.5,0.2,1,0.5,1.3l0,0l0,0C26.8,10.9,27.2,11.1,27.7,11.1z
		 M34.4,8.3L34.4,8.3v4.4h-1.9V6l1.9-0.2v0.6l0,0c0.4-0.4,1-0.6,1.6-0.6l0,0l0,0c0.9,0,1.5,0.3,2,0.8l0,0l0,0
		c0.5-0.5,1.3-0.8,2.2-0.8l0,0l0,0c0.9,0,1.5,0.3,2,0.8l0,0l0,0c0.5,0.5,0.7,1.1,0.7,1.8l0,0v4.2H41V8.9l0,0c0-0.5-0.1-0.8-0.3-1.1
		l0,0l0,0c-0.2-0.2-0.5-0.4-1-0.4l0,0l0,0c-0.4,0-0.7,0.3-1,0.7l0,0l0,0c0,0.1,0,0.3,0,0.4l0,0v4h-1.9V8.9l0,0
		c0-0.5-0.1-0.8-0.3-1.1l0,0l0,0c-0.2-0.2-0.5-0.4-1-0.4l0,0l0,0C35,7.5,34.7,7.8,34.4,8.3z M45.5,7.8l-0.8-1.2l0,0
		c0.9-0.5,1.9-0.8,3-0.8l0,0l0,0c0.8,0,1.5,0.2,1.9,0.7l0,0l0,0c0.6,0.5,0.8,1.2,0.8,2.1l0,0v4.1h-1.9v-0.5l0,0
		c-0.6,0.4-1.1,0.5-1.5,0.5l0,0l0,0c-0.9,0-1.6-0.2-2-0.6l0,0l0,0c-0.5-0.4-0.7-0.9-0.7-1.6l0,0l0,0c0-0.6,0.2-1.2,0.7-1.7l0,0l0,0
		C45.3,8.3,46,8,47,8l0,0l0,0c0.4,0,1,0.1,1.5,0.4l0,0V8.2l0,0c0-0.5-0.4-0.8-1.1-0.8l0,0l0,0C46.6,7.4,45.9,7.5,45.5,7.8L45.5,7.8z
		 M48.5,10.6L48.5,10.6V9.9l0,0c-0.2-0.4-0.6-0.5-1.3-0.5l0,0l0,0c-0.8,0.1-1.3,0.4-1.3,1l0,0l0,0c0,0.5,0.5,0.8,1.3,0.9l0,0l0,0
		C47.9,11.2,48.3,11,48.5,10.6z M54,8.3L54,8.3v4.3h-1.9V6L54,5.8v0.6l0,0c0.5-0.4,1-0.6,1.6-0.6l0,0l0,0c0.9,0,1.5,0.3,2,0.8l0,0
		l0,0c0.5,0.5,0.7,1.1,0.7,1.8l0,0v4.2h-1.9V8.9l0,0c0-0.5-0.1-0.8-0.3-1.1l0,0l0,0c-0.2-0.2-0.6-0.4-1-0.4l0,0l0,0
		C54.7,7.5,54.3,7.8,54,8.3z M61.9,12.7H60V5.8h1.9V12.7z M59.9,4.2L59.9,4.2L59.9,4.2c0,0.3,0.1,0.5,0.3,0.7l0,0l0,0
		c0.2,0.2,0.4,0.3,0.8,0.3l0,0l0,0c0.3,0,0.6-0.1,0.8-0.3l0,0l0,0c0.2-0.2,0.3-0.4,0.3-0.7l0,0l0,0c0-0.3-0.1-0.5-0.3-0.7l0,0l0,0
		c-0.2-0.2-0.4-0.3-0.8-0.3l0,0l0,0c-0.3,0-0.6,0.1-0.7,0.3l0,0l0,0C60,3.7,59.9,3.9,59.9,4.2z M64.4,7.8l-0.8-1.2l0,0
		c0.9-0.5,1.9-0.8,3-0.8l0,0l0,0c0.8,0,1.5,0.2,1.9,0.7l0,0l0,0c0.5,0.5,0.7,1.1,0.7,2l0,0v4.1h-1.8v-0.5l0,0
		c-0.6,0.4-1.1,0.5-1.5,0.5l0,0l0,0c-0.9,0-1.6-0.2-2.1-0.6l0,0l0,0c-0.5-0.4-0.7-0.9-0.7-1.6l0,0l0,0c0-0.6,0.2-1.2,0.7-1.7l0,0
		l0,0C64.3,8.3,65,8,65.9,8l0,0l0,0c0.5,0,1,0.2,1.5,0.4l0,0V8.2l0,0c0-0.5-0.4-0.8-1.1-0.8l0,0l0,0C65.5,7.4,64.9,7.5,64.4,7.8
		L64.4,7.8z M67.4,10.6L67.4,10.6V9.9l0,0c-0.2-0.4-0.6-0.5-1.3-0.5l0,0l0,0c-0.8,0.1-1.3,0.4-1.3,1l0,0l0,0c0,0.5,0.5,0.8,1.3,0.9
		l0,0l0,0C66.8,11.2,67.2,11,67.4,10.6z"/>
</g>
</svg>
