<?xml version="1.0" encoding="utf-8"?>
<!-- Generator: Adobe Illustrator 26.3.1, SVG Export Plug-In . SVG Version: 6.00 Build 0)  -->
<svg version="1.1" id="Calque_1" xmlns="http://www.w3.org/2000/svg" xmlns:xlink="http://www.w3.org/1999/xlink" x="0px" y="0px"
	 viewBox="0 0 300 300" style="enable-background:new 0 0 300 300;" xml:space="preserve">
<style type="text/css">
	.st0{fill:#FFD7D7;}
</style>
<g id="_x39_269873b-566f-aa23-fe77-697bbc54db67" transform="matrix(0.17276311525438642,0,0,0.17276311525438642,35.75002377601375,124.08554457454373)">
	<g>
		<path class="st0" d="M661.3,565.8c111.4,0,215.9-42.8,294.4-121.4s121.4-183,121.4-294.4s-42.8-215.9-121.4-294.4
			s-183-121.4-294.4-121.4S445.5-223,366.9-144.4S245.5,38.6,245.5,150s42.8,215.9,121.4,294.4S549.9,565.8,661.3,565.8z
			 M685.2,495.2c-8,1-15.9,1-23.9,1c-10.9,0-21.9-1-32.8-2c-35.8-55.7-62.7-115.4-78.6-178.1H726c6,14.9,16.9,28.8,29.8,37.8
			C738.9,403.6,715,450.4,685.2,495.2z M779.7,475.3c18.9-34.8,33.8-69.6,45.8-106.4c28.8-6,51.7-25.9,62.7-52.7h76.6
			C924.9,388.7,858.3,445.4,779.7,475.3z M1006.5,150c0,32.8-5,64.7-12.9,95.5H886.1c-6-12.9-15.9-24.9-27.9-33.8
			c2-21.9,3-43.8,3-65.7c0-30.8-2-61.7-6-91.5h137.3C1002.5,84.3,1006.5,117.2,1006.5,150z M964.7-16.1H843.3
			c-12.9-54.7-31.8-106.4-57.7-156.2C861.2-143.4,924.9-86.7,964.7-16.1z M791.6,146c0,16.9-1,33.8-2,50.7
			c-27.9,6-50.7,23.9-61.7,48.7H536c-4-29.8-7-60.7-7-90.5c0-18.9,1-37.8,3-56.7c25.9-5,46.8-21.9,59.7-43.8h194
			C789.6,84.3,791.6,115.2,791.6,146z M635.4-194.2c9-1,17.9-1,25.9-1c9.9,0,19.9,0,29.8,1c35.8,55.7,62.7,115.4,78.6,178.1H596.7
			c-6-16.9-16.9-31.8-30.8-42.8C583.7-106.6,606.6-151.4,635.4-194.2z M541-174.3c-16.9,31.8-31.8,65.7-43.8,99.5
			c-30.8,6-55.7,28.8-65.7,57.7h-72.6C397.7-87.7,462.4-144.4,541-174.3z M316.1,150c0-32.8,5-65.7,13.9-95.5h108.4
			c6,10.9,14.9,20.9,24.9,28.8c-2,23.9-4,47.7-4,71.6c0,30.8,2,60.7,6,90.5H330.1C320.1,214.7,316.1,182.8,316.1,150z M477.3,315.1
			c12.9,53.7,31.8,106.4,57.7,156.2c-75.6-29.8-138.3-85.5-177.1-156.2C357.9,315.1,477.3,315.1,477.3,315.1z"/>
	</g>
</g>
</svg>
