<?xml version="1.0" standalone="no"?>
<!DOCTYPE svg PUBLIC "-//W3C//DTD SVG 20010904//EN"
 "http://www.w3.org/TR/2001/REC-SVG-20010904/DTD/svg10.dtd">
<svg version="1.0" xmlns="http://www.w3.org/2000/svg"
 width="700.000000pt" height="700.000000pt" viewBox="0 0 700.000000 700.000000"
 preserveAspectRatio="xMidYMid meet">
<metadata>
Created by potrace 1.14, written by Peter Selinger 2001-2017
</metadata>
<g transform="translate(0.000000,700.000000) scale(0.100000,-0.100000)"
fill="#000000" stroke="none">
<path d="M3340 5168 c-126 -14 -146 -17 -210 -33 -36 -9 -74 -18 -84 -20 -127
-29 -389 -155 -526 -252 -121 -87 -296 -263 -382 -383 -169 -237 -276 -521
-305 -805 -12 -122 -6 -386 11 -435 3 -8 7 -33 10 -55 18 -137 99 -360 186
-511 199 -346 492 -597 862 -740 485 -188 1066 -129 1500 152 176 113 346 274
461 434 125 177 234 423 277 632 75 367 27 762 -134 1087 -252 510 -750 863
-1311 927 -85 9 -278 11 -355 2z m336 -374 c102 -173 176 -343 237 -541 l25
-83 -349 0 -349 0 -24 49 c-14 26 -41 65 -60 85 -20 20 -36 40 -36 44 0 33
142 327 212 440 67 108 56 102 179 102 l108 0 57 -96z m-713 -91 c-64 -139
-71 -155 -97 -225 -13 -34 -30 -66 -37 -70 -8 -4 -39 -18 -69 -31 -63 -28
-133 -95 -166 -159 l-22 -43 -145 -1 c-167 0 -159 -11 -84 101 65 97 166 209
272 300 92 79 336 220 387 224 4 1 -14 -43 -39 -96z m1157 42 c125 -61 239
-144 352 -255 97 -95 197 -221 234 -292 l15 -28 -245 0 -244 0 -12 53 c-22 96
-98 314 -150 429 -66 144 -69 153 -44 139 10 -5 53 -26 94 -46z m-1482 -912
c23 -28 46 -54 52 -58 8 -5 9 -38 4 -108 -9 -122 -8 -291 1 -407 4 -47 8 -98
9 -115 l1 -30 -263 0 c-145 0 -267 2 -272 5 -10 6 -28 72 -45 169 -10 51 -13
128 -10 236 3 164 5 180 34 305 l13 55 218 0 218 0 40 -52z m1363 47 c0 -3 2
-14 4 -25 8 -39 19 -241 18 -340 -1 -194 -2 -205 -16 -205 -8 0 -41 -14 -74
-30 -54 -27 -88 -57 -158 -142 l-20 -24 -377 1 c-207 0 -379 2 -381 5 -3 3 -8
41 -12 85 -4 44 -9 83 -12 87 -8 14 -3 359 6 408 1 4 18 12 39 19 59 21 129
70 164 115 18 22 36 43 40 46 9 7 778 7 779 0z m846 -34 c26 -76 41 -211 41
-356 -1 -132 -6 -174 -38 -325 l-10 -50 -214 0 -214 0 -37 49 c-20 27 -47 58
-60 70 -21 19 -22 26 -16 96 11 121 4 383 -14 530 l-3 25 276 0 275 0 14 -39z
m-2095 -1015 c4 -1 12 -20 18 -43 39 -155 122 -383 186 -511 33 -66 33 -68 12
-62 -37 11 -183 91 -261 142 -102 68 -289 258 -364 372 -35 51 -61 96 -59 100
3 5 437 7 468 2z m1024 -33 c9 -17 36 -53 61 -79 l44 -47 -46 -114 c-50 -122
-132 -281 -196 -384 -43 -68 -40 -66 -134 -67 -133 0 -133 0 -159 42 -48 76
-124 218 -165 309 -33 74 -131 349 -131 368 0 2 160 4 355 4 l354 0 17 -32z
m933 10 c-63 -119 -180 -257 -324 -383 -77 -67 -278 -186 -377 -224 -26 -10
-25 -8 27 102 29 62 70 158 90 214 36 96 39 101 74 112 78 23 169 102 202 174
l12 27 154 0 154 0 -12 -22z"/>
</g>
</svg>
